<mxfile host="app.diagrams.net" modified="2024-07-10T06:04:16.459Z" agent="Mozilla/5.0 (Windows NT 10.0; Win64; x64) AppleWebKit/537.36 (KHTML, like Gecko) Chrome/126.0.0.0 Safari/537.36" version="24.6.4" etag="May2yKjWMjA2FY8_fbX1" type="github">
  <diagram name="Halaman-1" id="ZDw6HqDfvoTUQ8g50puf">
    <mxGraphModel>
      <root>
        <mxCell id="0" />
        <mxCell id="1" parent="0" />
      </root>
    </mxGraphModel>
  </diagram>
</mxfile>
